<svg width="476" height="476" viewBox="0 0 476 476" fill="none" xmlns="http://www.w3.org/2000/svg">
<g clip-path="url(#clip0_101_93)">
<path d="M436.51 136.486H131.801C126.793 136.486 122.719 132.412 122.719 127.403V51.7566C55.4122 91.3362 10.2266 164.499 10.2266 248.227C10.2266 374.023 112.204 476 238 476C363.796 476 465.773 374.023 465.773 248.227C465.773 207.619 455.134 169.501 436.51 136.486Z" fill="#FED2A4"/>
<path d="M419.29 166.526H65.0874C59.9481 166.526 55.7812 170.692 55.7812 175.832V213.461L63.7468 214.392H421.387L428.595 213.461V175.832C428.596 170.692 424.429 166.526 419.29 166.526Z" fill="#0593FC"/>
<path d="M103.185 175.832C103.185 170.692 107.352 166.526 112.491 166.526H65.0874C59.9481 166.526 55.7812 170.692 55.7812 175.832V213.461H103.185V175.832Z" fill="#0182FC"/>
<path d="M375.703 416.487C374.187 414.971 374.187 412.504 375.703 410.988L394.265 392.426C394.999 391.691 395.975 391.287 397.015 391.287C398.053 391.287 399.029 391.691 399.764 392.426L428.596 421.258V213.46H55.7812V384.904C73.238 408.139 95.0308 427.931 119.965 443.068H402.283L375.703 416.487Z" fill="#EAF6FF"/>
<path d="M103.185 213.46H55.7812V384.904C69.1985 402.763 85.1863 418.577 103.185 431.818V213.46Z" fill="#D8ECFE"/>
<path d="M122.641 302.498V249.325C122.641 247.729 121.347 246.435 119.75 246.435H98.4111C96.8149 246.435 95.5208 247.729 95.5208 249.325V302.498H122.641Z" fill="#80D261"/>
<path d="M109.804 246.436H98.4102C96.8139 246.436 95.5198 247.73 95.5198 249.326V302.499H106.914V249.326C106.914 247.73 108.208 246.436 109.804 246.436Z" fill="#68CA44"/>
<path d="M159.705 302.498V272.401C159.705 270.805 158.411 269.511 156.815 269.511H135.476C133.88 269.511 132.586 270.805 132.586 272.401V302.498H159.705Z" fill="#FE646F"/>
<path d="M146.833 269.512H135.476C133.88 269.512 132.586 270.806 132.586 272.402V302.499H143.943V272.402C143.942 270.806 145.236 269.512 146.833 269.512Z" fill="#FD4755"/>
<path d="M196.77 302.498V262.766C196.77 261.17 195.476 259.876 193.88 259.876H172.541C170.944 259.876 169.65 261.17 169.65 262.766V302.498H196.77Z" fill="#FE9901"/>
<path d="M185.109 259.876H172.54C170.943 259.876 169.649 261.17 169.649 262.766V302.498H182.219V262.766C182.219 261.17 183.513 259.876 185.109 259.876Z" fill="#FB8801"/>
<path d="M394.265 392.427L373.733 371.895C368.631 379.075 362.351 385.355 355.171 390.458L375.702 410.989L394.265 392.427Z" fill="#6C7FD8"/>
<path d="M435.428 452.151C428.42 459.158 417.059 459.158 410.052 452.151L375.045 417.144C373.164 415.263 373.164 412.212 375.045 410.331L393.607 391.768C395.489 389.887 398.539 389.887 400.421 391.768L435.428 426.775C442.435 433.782 442.435 445.144 435.428 452.151Z" fill="#4F66D0"/>
<path d="M430.494 452.151L395.487 417.144C393.605 415.263 393.605 412.212 395.487 410.331L407.235 398.583L400.42 391.768C398.538 389.887 395.488 389.887 393.606 391.768L375.044 410.331C373.163 412.212 373.163 415.263 375.044 417.144L410.051 452.151C416.287 458.387 425.964 459.058 432.96 454.194C432.095 453.593 431.264 452.921 430.494 452.151Z" fill="#314DC9"/>
<path d="M310.037 405.806C353.692 405.806 389.082 370.416 389.082 326.761C389.082 283.106 353.692 247.716 310.037 247.716C266.382 247.716 230.992 283.106 230.992 326.761C230.992 370.416 266.382 405.806 310.037 405.806Z" fill="#FE646F"/>
<path d="M254.692 326.761C254.692 287.133 283.853 254.322 321.887 248.603C318.021 248.022 314.065 247.716 310.037 247.716C266.381 247.716 230.992 283.106 230.992 326.761C230.992 370.416 266.381 405.806 310.037 405.806C314.064 405.806 318.021 405.5 321.887 404.919C283.853 399.2 254.692 366.388 254.692 326.761Z" fill="#FD4755"/>
<path d="M310.037 384.696C342.034 384.696 367.972 358.758 367.972 326.761C367.972 294.764 342.034 268.826 310.037 268.826C278.04 268.826 252.102 294.764 252.102 326.761C252.102 358.758 278.04 384.696 310.037 384.696Z" fill="white"/>
<path d="M275.529 326.761C275.529 298.777 295.369 275.428 321.751 270.012C317.968 269.235 314.05 268.827 310.038 268.827C278.041 268.827 252.102 294.765 252.102 326.762C252.102 358.759 278.041 384.697 310.038 384.697C314.05 384.697 317.968 384.288 321.751 383.512C295.369 378.093 275.529 354.745 275.529 326.761Z" fill="#F5F8F9"/>
<path d="M389.187 278.586L342.601 325.171L318.197 300.768C315.474 298.045 311.059 298.045 308.336 300.768L282.055 327.049C287.057 328.129 290.844 332.478 291.087 337.739L313.267 315.558L337.672 339.962C340.395 342.685 344.81 342.685 347.532 339.962L399.049 288.445L389.187 278.586Z" fill="#8AC9FE"/>
<path d="M410.923 263.999L384.645 270.571C382.96 270.992 382.379 273.091 383.607 274.319L403.312 294.025C404.54 295.253 406.64 294.672 407.062 292.986L413.634 266.709C414.043 265.073 412.56 263.59 410.923 263.999Z" fill="#60B7FF"/>
<path d="M279.628 350.687C286.484 350.687 292.043 345.128 292.043 338.271C292.043 331.415 286.484 325.856 279.628 325.856C272.771 325.856 267.213 331.415 267.213 338.271C267.213 345.128 272.771 350.687 279.628 350.687Z" fill="#60B7FF"/>
<path d="M209.427 315.514H88.417C84.5662 315.514 81.4443 312.392 81.4443 308.541C81.4443 304.69 84.5662 301.568 88.417 301.568H209.427C213.278 301.568 216.4 304.69 216.4 308.541C216.4 312.392 213.278 315.514 209.427 315.514Z" fill="#60B7FF"/>
<path d="M102.752 344.186H88.417C84.5662 344.186 81.4443 341.064 81.4443 337.213C81.4443 333.363 84.5662 330.241 88.417 330.241H102.752C106.603 330.241 109.725 333.363 109.725 337.213C109.725 341.064 106.603 344.186 102.752 344.186Z" fill="#60B7FF"/>
<path d="M102.752 369.912H88.417C84.5662 369.912 81.4443 366.791 81.4443 362.94C81.4443 359.089 84.5662 355.967 88.417 355.967H102.752C106.603 355.967 109.725 359.089 109.725 362.94C109.725 366.791 106.603 369.912 102.752 369.912Z" fill="#8AC9FE"/>
<path d="M102.752 395.638H88.417C84.5662 395.638 81.4443 392.516 81.4443 388.665C81.4443 384.814 84.5662 381.693 88.417 381.693H102.752C106.603 381.693 109.725 384.814 109.725 388.665C109.725 392.516 106.603 395.638 102.752 395.638Z" fill="#8AC9FE"/>
<path d="M209.427 344.186H122.641C118.79 344.186 115.668 341.064 115.668 337.213C115.668 333.363 118.79 330.241 122.641 330.241H209.427C213.278 330.241 216.4 333.363 216.4 337.213C216.4 341.064 213.278 344.186 209.427 344.186Z" fill="#60B7FF"/>
<path d="M209.427 369.912H122.641C118.79 369.912 115.668 366.791 115.668 362.94C115.668 359.089 118.79 355.967 122.641 355.967H209.427C213.278 355.967 216.4 359.089 216.4 362.94C216.4 366.791 213.278 369.912 209.427 369.912Z" fill="#8AC9FE"/>
<path d="M209.427 395.638H122.641C118.79 395.638 115.668 392.516 115.668 388.665C115.668 384.814 118.79 381.693 122.641 381.693H209.427C213.278 381.693 216.4 384.814 216.4 388.665C216.4 392.516 213.278 395.638 209.427 395.638Z" fill="#8AC9FE"/>
<path d="M450.183 137.415H131.801C126.271 137.415 121.789 132.932 121.789 127.403V10.0118C121.789 4.48295 126.272 0 131.801 0H450.183C455.712 0 460.195 4.48295 460.195 10.0118V127.403C460.195 132.932 455.712 137.415 450.183 137.415Z" fill="#0593FC"/>
<path d="M159.906 127.403V10.0118C159.906 4.48295 164.389 0 169.918 0H131.801C126.272 0 121.789 4.48295 121.789 10.0118V127.403C121.789 132.932 126.272 137.414 131.801 137.414H169.918C164.389 137.415 159.906 132.932 159.906 127.403Z" fill="#0182FC"/>
<path d="M192.648 27.502C168.082 28.6204 148.655 49.4501 149.809 74.547C150.869 97.5846 169.568 116.283 192.604 117.342C217.701 118.497 238.53 99.0694 239.649 74.5033C239.7 73.3709 238.795 72.4227 237.662 72.4227H196.712C195.616 72.4227 194.728 71.5348 194.728 70.4387V29.4888C194.729 28.3555 193.779 27.45 192.648 27.502Z" fill="#FFD15B"/>
<path d="M213.266 105.647C190.228 104.587 171.53 85.8882 170.47 62.8515C169.858 49.5347 175.041 37.4208 183.71 28.8138C163.548 33.8917 148.798 52.585 149.809 74.5461C150.869 97.5837 169.568 116.282 192.604 117.341C205.803 117.949 217.816 112.858 226.408 104.327C222.228 105.38 217.818 105.856 213.266 105.647Z" fill="#FFC344"/>
<path d="M247.953 62.131C249.087 62.131 249.992 61.1827 249.941 60.0504C249.353 47.1537 243.335 35.674 234.118 27.8441C226.767 21.5994 217.381 17.6771 207.095 17.2094C205.966 17.1583 205.02 18.0657 205.02 19.1962V60.1461C205.02 61.2422 205.908 62.1301 207.004 62.1301L247.953 62.131Z" fill="#80D261"/>
<path d="M220.336 60.1471V19.8451C216.173 18.3372 211.726 17.4205 207.094 17.2094C205.965 17.1583 205.019 18.0657 205.019 19.1962V60.1461C205.019 61.2422 205.907 62.1301 207.003 62.1301H222.319C221.224 62.131 220.336 61.2432 220.336 60.1471Z" fill="#68CA44"/>
<path d="M293.46 98.3321V71.3358C293.46 67.4851 290.338 64.3632 286.487 64.3632C282.636 64.3632 279.514 67.4851 279.514 71.3358V98.3321H293.46Z" fill="#FE9901"/>
<path d="M318.99 98.3321V32.289C318.99 28.4382 315.868 25.3163 312.017 25.3163C308.166 25.3163 305.044 28.4382 305.044 32.289V98.3321H318.99Z" fill="#80D261"/>
<path d="M344.521 98.3321V47.3071C344.521 43.4564 341.399 40.3345 337.548 40.3345C333.697 40.3345 330.575 43.4564 330.575 47.3071V98.3321H344.521Z" fill="#FFD15B"/>
<path d="M370.052 98.3321V71.3358C370.052 67.4851 366.93 64.3632 363.079 64.3632C359.228 64.3632 356.107 67.4851 356.107 71.3358V98.3321H370.052Z" fill="#FE9901"/>
<path d="M395.582 98.3321V47.3071C395.582 43.4564 392.46 40.3345 388.609 40.3345C384.759 40.3345 381.637 43.4564 381.637 47.3071V98.3321H395.582Z" fill="#80D261"/>
<path d="M421.112 98.3321V80.3464C421.112 76.4956 417.99 73.3737 414.14 73.3737C410.289 73.3737 407.167 76.4956 407.167 80.3464V98.3321H421.112Z" fill="#FE646F"/>
<path d="M432.913 111.348H267.714C263.863 111.348 260.741 108.226 260.741 104.375C260.741 100.524 263.863 97.4024 267.714 97.4024H432.912C436.763 97.4024 439.884 100.524 439.884 104.375C439.884 108.226 436.763 111.348 432.913 111.348Z" fill="white"/>
<path d="M356.546 196.164C360.397 196.164 363.519 193.042 363.519 189.191C363.519 185.341 360.397 182.219 356.546 182.219C352.695 182.219 349.574 185.341 349.574 189.191C349.574 193.042 352.695 196.164 356.546 196.164Z" fill="#FE646F"/>
<path d="M376.999 196.164C380.85 196.164 383.972 193.042 383.972 189.191C383.972 185.341 380.85 182.219 376.999 182.219C373.149 182.219 370.027 185.341 370.027 189.191C370.027 193.042 373.149 196.164 376.999 196.164Z" fill="#FFD15B"/>
<path d="M397.453 196.164C401.303 196.164 404.425 193.042 404.425 189.191C404.425 185.341 401.303 182.219 397.453 182.219C393.602 182.219 390.48 185.341 390.48 189.191C390.48 193.042 393.602 196.164 397.453 196.164Z" fill="#80D261"/>
<path d="M434.629 27.8906C438.48 27.8906 441.602 24.7689 441.602 20.918C441.602 17.0671 438.48 13.9453 434.629 13.9453C430.778 13.9453 427.656 17.0671 427.656 20.918C427.656 24.7689 430.778 27.8906 434.629 27.8906Z" fill="#0172FB"/>
<path d="M414.176 27.8906C418.027 27.8906 421.148 24.7689 421.148 20.918C421.148 17.0671 418.027 13.9453 414.176 13.9453C410.325 13.9453 407.203 17.0671 407.203 20.918C407.203 24.7689 410.325 27.8906 414.176 27.8906Z" fill="#0172FB"/>
</g>
<defs>
<clipPath id="clip0_101_93">
<rect width="476" height="476" fill="white"/>
</clipPath>
</defs>
</svg>
