<svg width="512" height="512" viewBox="0 0 512 512" fill="none" xmlns="http://www.w3.org/2000/svg">
<g clip-path="url(#clip0_101_2)">
<g clip-path="url(#clip1_101_2)">
<path d="M367.531 92.0334H171.686C168.467 92.0334 165.849 89.415 165.849 86.1961V37.5759C122.589 63.0147 93.5472 110.038 93.5472 163.852C93.5472 244.705 159.091 310.248 239.943 310.248C320.796 310.248 386.339 244.705 386.339 163.852C386.339 137.753 379.501 113.253 367.531 92.0334Z" fill="#FED2A4"/>
<path d="M356.463 111.341H128.808C125.505 111.341 122.826 114.019 122.826 117.322V141.507L127.946 142.106H357.811L362.444 141.507V117.322C362.445 114.019 359.766 111.341 356.463 111.341Z" fill="#0593FC"/>
<path d="M153.294 117.322C153.294 114.019 155.972 111.341 159.275 111.341H128.808C125.505 111.341 122.826 114.019 122.826 117.322V141.507H153.294V117.322Z" fill="#0182FC"/>
<path d="M328.448 271.998C327.474 271.023 327.474 269.438 328.448 268.463L340.379 256.533C340.851 256.061 341.478 255.801 342.146 255.801C342.814 255.801 343.441 256.061 343.913 256.533L362.445 275.064V141.507H122.826V251.698C134.046 266.633 148.053 279.353 164.079 289.082H345.532L328.448 271.998Z" fill="#EAF6FF"/>
<path d="M153.294 141.507H122.826V251.698C131.45 263.177 141.726 273.341 153.294 281.851V141.507Z" fill="#D8ECFE"/>
<path d="M165.799 198.734V164.559C165.799 163.533 164.967 162.701 163.941 162.701H150.226C149.2 162.701 148.368 163.533 148.368 164.559V198.734H165.799Z" fill="#80D261"/>
<path d="M157.549 162.701H150.225C149.199 162.701 148.367 163.533 148.367 164.559V198.735H155.691V164.559C155.691 163.533 156.523 162.701 157.549 162.701Z" fill="#68CA44"/>
<path d="M189.621 198.734V179.39C189.621 178.364 188.789 177.532 187.764 177.532H174.048C173.022 177.532 172.191 178.364 172.191 179.39V198.734H189.621Z" fill="#FE646F"/>
<path d="M181.348 177.533H174.048C173.022 177.533 172.191 178.365 172.191 179.391V198.735H179.49V179.391C179.489 178.365 180.321 177.533 181.348 177.533Z" fill="#FD4755"/>
<path d="M213.444 198.734V173.197C213.444 172.171 212.612 171.339 211.586 171.339H197.871C196.845 171.339 196.013 172.171 196.013 173.197V198.734H213.444Z" fill="#FE9901"/>
<path d="M205.949 171.339H197.87C196.844 171.339 196.012 172.171 196.012 173.197V198.734H204.091V173.197C204.091 172.171 204.923 171.339 205.949 171.339Z" fill="#FB8801"/>
<path d="M340.379 256.534L327.183 243.338C323.904 247.952 319.867 251.989 315.252 255.268L328.448 268.464L340.379 256.534Z" fill="#6C7FD8"/>
<path d="M366.835 294.92C362.332 299.423 355.029 299.423 350.525 294.92L328.026 272.42C326.816 271.211 326.816 269.25 328.026 268.041L339.956 256.111C341.166 254.901 343.126 254.901 344.336 256.111L366.835 278.61C371.339 283.114 371.339 290.416 366.835 294.92Z" fill="#4F66D0"/>
<path d="M363.664 294.92L341.164 272.42C339.955 271.211 339.955 269.25 341.164 268.041L348.715 260.49L344.335 256.111C343.126 254.901 341.165 254.901 339.956 256.111L328.025 268.041C326.816 269.25 326.816 271.211 328.025 272.42L350.525 294.92C354.533 298.928 360.753 299.36 365.249 296.233C364.694 295.847 364.159 295.415 363.664 294.92Z" fill="#314DC9"/>
<path d="M286.243 265.133C314.302 265.133 337.047 242.387 337.047 214.329C337.047 186.27 314.302 163.524 286.243 163.524C258.185 163.524 235.439 186.27 235.439 214.329C235.439 242.387 258.185 265.133 286.243 265.133Z" fill="#FE646F"/>
<path d="M250.671 214.329C250.671 188.859 269.414 167.77 293.859 164.094C291.375 163.721 288.832 163.524 286.243 163.524C258.185 163.524 235.439 186.27 235.439 214.329C235.439 242.387 258.185 265.133 286.243 265.133C288.832 265.133 291.375 264.936 293.859 264.563C269.414 260.887 250.671 239.798 250.671 214.329Z" fill="#FD4755"/>
<path d="M286.243 251.565C306.808 251.565 323.48 234.894 323.48 214.329C323.48 193.763 306.808 177.092 286.243 177.092C265.678 177.092 249.007 193.763 249.007 214.329C249.007 234.894 265.678 251.565 286.243 251.565Z" fill="white"/>
<path d="M264.064 214.329C264.064 196.343 276.816 181.336 293.772 177.854C291.341 177.355 288.823 177.093 286.244 177.093C265.678 177.093 249.007 193.764 249.007 214.329C249.007 234.894 265.678 251.566 286.244 251.566C288.823 251.566 291.341 251.303 293.772 250.804C276.816 247.321 264.064 232.314 264.064 214.329Z" fill="#F5F8F9"/>
<path d="M337.115 183.365L307.173 213.307L291.488 197.622C289.738 195.872 286.9 195.872 285.15 197.622L268.259 214.514C271.473 215.208 273.908 218.003 274.064 221.384L288.32 207.128L304.005 222.813C305.755 224.563 308.593 224.563 310.342 222.813L343.454 189.702L337.115 183.365Z" fill="#8AC9FE"/>
<path d="M351.085 173.99L334.196 178.213C333.113 178.484 332.739 179.833 333.529 180.623L346.194 193.288C346.983 194.077 348.333 193.704 348.604 192.621L352.828 175.731C353.091 174.68 352.138 173.727 351.085 173.99Z" fill="#60B7FF"/>
<path d="M266.698 229.706C271.105 229.706 274.678 226.134 274.678 221.727C274.678 217.32 271.105 213.747 266.698 213.747C262.292 213.747 258.719 217.32 258.719 221.727C258.719 226.134 262.292 229.706 266.698 229.706Z" fill="#60B7FF"/>
<path d="M221.579 207.1H143.802C141.327 207.1 139.321 205.093 139.321 202.618C139.321 200.143 141.327 198.137 143.802 198.137H221.579C224.054 198.137 226.06 200.143 226.06 202.618C226.06 205.093 224.054 207.1 221.579 207.1Z" fill="#60B7FF"/>
<path d="M153.016 225.528H143.802C141.327 225.528 139.321 223.522 139.321 221.047C139.321 218.572 141.327 216.565 143.802 216.565H153.016C155.491 216.565 157.497 218.572 157.497 221.047C157.497 223.522 155.491 225.528 153.016 225.528Z" fill="#60B7FF"/>
<path d="M153.016 242.063H143.802C141.327 242.063 139.321 240.057 139.321 237.582C139.321 235.107 141.327 233.1 143.802 233.1H153.016C155.491 233.1 157.497 235.107 157.497 237.582C157.497 240.057 155.491 242.063 153.016 242.063Z" fill="#8AC9FE"/>
<path d="M153.016 258.597H143.802C141.327 258.597 139.321 256.591 139.321 254.116C139.321 251.641 141.327 249.634 143.802 249.634H153.016C155.491 249.634 157.497 251.641 157.497 254.116C157.497 256.591 155.491 258.597 153.016 258.597Z" fill="#8AC9FE"/>
<path d="M221.579 225.528H165.799C163.324 225.528 161.317 223.522 161.317 221.047C161.317 218.572 163.324 216.565 165.799 216.565H221.579C224.054 216.565 226.06 218.572 226.06 221.047C226.06 223.522 224.054 225.528 221.579 225.528Z" fill="#60B7FF"/>
<path d="M221.579 242.063H165.799C163.324 242.063 161.317 240.057 161.317 237.582C161.317 235.107 163.324 233.1 165.799 233.1H221.579C224.054 233.1 226.06 235.107 226.06 237.582C226.06 240.057 224.054 242.063 221.579 242.063Z" fill="#8AC9FE"/>
<path d="M221.579 258.597H165.799C163.324 258.597 161.317 256.591 161.317 254.116C161.317 251.641 163.324 249.634 165.799 249.634H221.579C224.054 249.634 226.06 251.641 226.06 254.116C226.06 256.591 224.054 258.597 221.579 258.597Z" fill="#8AC9FE"/>
<path d="M376.319 92.6309H171.686C168.132 92.6309 165.251 89.7496 165.251 86.1961V10.7453C165.251 7.1918 168.133 4.31049 171.686 4.31049H376.319C379.873 4.31049 382.754 7.1918 382.754 10.7453V86.1955C382.754 89.7496 379.873 92.6309 376.319 92.6309Z" fill="#0593FC"/>
<path d="M189.75 86.1955V10.7453C189.75 7.1918 192.632 4.31049 196.185 4.31049H171.686C168.133 4.31049 165.251 7.1918 165.251 10.7453V86.1955C165.251 89.7496 168.133 92.6303 171.686 92.6303H196.185C192.632 92.6309 189.75 89.7496 189.75 86.1955Z" fill="#0182FC"/>
<path d="M210.794 21.9868C195.005 22.7056 182.519 36.0934 183.26 52.2238C183.942 67.0307 195.96 79.0484 210.766 79.7296C226.897 80.4717 240.284 67.985 241.003 52.1957C241.036 51.4679 240.454 50.8585 239.726 50.8585H213.406C212.702 50.8585 212.131 50.2878 212.131 49.5833V23.2637C212.132 22.5353 211.522 21.9533 210.794 21.9868Z" fill="#FFD15B"/>
<path d="M224.046 72.2125C209.239 71.5314 197.221 59.5131 196.54 44.7068C196.146 36.1477 199.478 28.3618 205.05 22.8299C192.091 26.0936 182.611 38.1082 183.26 52.2232C183.942 67.0301 195.96 79.0478 210.766 79.7289C219.249 80.1191 226.97 76.8476 232.493 71.364C229.806 72.0411 226.972 72.347 224.046 72.2125Z" fill="#FFC344"/>
<path d="M246.34 44.2437C247.069 44.2437 247.651 43.6343 247.618 42.9065C247.24 34.6174 243.372 27.2391 237.448 22.2066C232.723 18.193 226.691 15.672 220.08 15.3714C219.354 15.3386 218.746 15.9218 218.746 16.6484V42.968C218.746 43.6725 219.317 44.2431 220.021 44.2431L246.34 44.2437Z" fill="#80D261"/>
<path d="M228.59 42.9686V17.0655C225.914 16.0963 223.056 15.5071 220.079 15.3714C219.353 15.3386 218.746 15.9218 218.746 16.6484V42.968C218.746 43.6725 219.316 44.2431 220.021 44.2431H229.865C229.161 44.2437 228.59 43.6731 228.59 42.9686Z" fill="#68CA44"/>
<path d="M275.589 67.5112V50.1599C275.589 47.685 273.582 45.6784 271.107 45.6784C268.632 45.6784 266.626 47.685 266.626 50.1599V67.5112H275.589Z" fill="#FE9901"/>
<path d="M291.998 67.5112V25.0635C291.998 22.5885 289.991 20.582 287.516 20.582C285.041 20.582 283.034 22.5885 283.034 25.0635V67.5112H291.998Z" fill="#80D261"/>
<path d="M308.407 67.5112V34.7161C308.407 32.2411 306.4 30.2346 303.926 30.2346C301.451 30.2346 299.444 32.2411 299.444 34.7161V67.5112H308.407Z" fill="#FFD15B"/>
<path d="M324.817 67.5112V50.1599C324.817 47.685 322.81 45.6784 320.335 45.6784C317.86 45.6784 315.854 47.685 315.854 50.1599V67.5112H324.817Z" fill="#FE9901"/>
<path d="M341.225 67.5112V34.7161C341.225 32.2411 339.219 30.2346 336.744 30.2346C334.269 30.2346 332.262 32.2411 332.262 34.7161V67.5112H341.225Z" fill="#80D261"/>
<path d="M357.634 67.5112V55.9513C357.634 53.4763 355.628 51.4697 353.153 51.4697C350.678 51.4697 348.671 53.4763 348.671 55.9513V67.5112H357.634Z" fill="#FE646F"/>
<path d="M365.219 75.8767H259.041C256.566 75.8767 254.56 73.8701 254.56 71.3951C254.56 68.9202 256.566 66.9136 259.041 66.9136H365.218C367.693 66.9136 369.7 68.9202 369.7 71.3951C369.7 73.8701 367.694 75.8767 365.219 75.8767Z" fill="white"/>
<path d="M316.136 130.39C318.611 130.39 320.618 128.384 320.618 125.909C320.618 123.434 318.611 121.427 316.136 121.427C313.661 121.427 311.655 123.434 311.655 125.909C311.655 128.384 313.661 130.39 316.136 130.39Z" fill="#FE646F"/>
<path d="M329.282 130.39C331.757 130.39 333.763 128.384 333.763 125.909C333.763 123.434 331.757 121.427 329.282 121.427C326.807 121.427 324.8 123.434 324.8 125.909C324.8 128.384 326.807 130.39 329.282 130.39Z" fill="#FFD15B"/>
<path d="M342.428 130.39C344.903 130.39 346.909 128.384 346.909 125.909C346.909 123.434 344.903 121.427 342.428 121.427C339.953 121.427 337.946 123.434 337.946 125.909C337.946 128.384 339.953 130.39 342.428 130.39Z" fill="#80D261"/>
<path d="M366.322 22.2365C368.797 22.2365 370.803 20.2301 370.803 17.755C370.803 15.2799 368.797 13.2735 366.322 13.2735C363.847 13.2735 361.84 15.2799 361.84 17.755C361.84 20.2301 363.847 22.2365 366.322 22.2365Z" fill="#0172FB"/>
<path d="M353.176 22.2365C355.651 22.2365 357.658 20.2301 357.658 17.755C357.658 15.2799 355.651 13.2735 353.176 13.2735C350.701 13.2735 348.695 15.2799 348.695 17.755C348.695 20.2301 350.701 22.2365 353.176 22.2365Z" fill="#0172FB"/>
</g>
<path d="M108.288 404.753L139.562 346.961H150.601L113.7 414H102.781L66 346.961H77.0391L108.288 404.753ZM169.782 414H160.371V346.961H169.782V414ZM160.371 334.488V325H169.782V334.488H160.371ZM251.734 360.952V361.867H242.204V360.952C242.204 359.715 241.765 358.656 240.887 357.773C239.993 356.89 238.939 356.449 237.726 356.449H197.712C196.483 356.449 195.429 356.89 194.551 357.773C193.673 358.656 193.234 359.715 193.234 360.952V371.234C193.234 372.47 193.673 373.529 194.551 374.412C195.429 375.295 196.483 375.737 197.712 375.737H237.726C241.621 375.737 244.934 377.109 247.663 379.854C250.377 382.584 251.734 385.874 251.734 389.727V400.009C251.734 403.862 250.377 407.161 247.663 409.906C244.934 412.635 241.621 414 237.726 414H197.712C193.881 414 190.608 412.635 187.894 409.906C185.164 407.161 183.8 403.862 183.8 400.009V399.094H193.234V400.009C193.234 401.246 193.673 402.305 194.551 403.188C195.429 404.071 196.483 404.512 197.712 404.512H237.726C238.939 404.512 239.993 404.071 240.887 403.188C241.765 402.305 242.204 401.246 242.204 400.009V389.727C242.204 388.491 241.765 387.432 240.887 386.549C239.993 385.666 238.939 385.224 237.726 385.224H197.712C193.881 385.224 190.608 383.852 187.894 381.107C185.164 378.378 183.8 375.087 183.8 371.234V360.952C183.8 357.099 185.164 353.8 187.894 351.055C190.608 348.326 193.881 346.961 197.712 346.961H237.726C241.621 346.961 244.934 348.326 247.663 351.055C250.377 353.8 251.734 357.099 251.734 360.952ZM272.538 414H263.128V346.961H272.538V414ZM263.128 334.488V325H272.538V334.488H263.128ZM300.828 346.961H340.818C344.729 346.961 348.041 348.326 350.755 351.055C353.485 353.8 354.85 357.099 354.85 360.952V400.009C354.85 403.862 353.485 407.161 350.755 409.906C348.041 412.635 344.729 414 340.818 414H300.828C296.997 414 293.716 412.635 290.986 409.906C288.272 407.161 286.916 403.862 286.916 400.009V360.952C286.916 357.099 288.272 353.8 290.986 351.055C293.716 348.326 296.997 346.961 300.828 346.961ZM340.818 356.449H300.828C299.599 356.449 298.545 356.89 297.667 357.773C296.773 358.656 296.326 359.715 296.326 360.952V400.009C296.326 401.246 296.773 402.305 297.667 403.188C298.545 404.071 299.599 404.512 300.828 404.512H340.818C342.047 404.512 343.101 404.071 343.979 403.188C344.857 402.305 345.296 401.246 345.296 400.009V360.952C345.296 359.715 344.857 358.656 343.979 357.773C343.101 356.89 342.047 356.449 340.818 356.449ZM365.065 346.961H419.087C422.919 346.961 426.199 348.326 428.929 351.055C431.643 353.8 433 357.099 433 360.952V414H423.565V360.952C423.565 359.715 423.126 358.656 422.248 357.773C421.37 356.89 420.317 356.449 419.087 356.449H379.098C377.869 356.449 376.791 356.89 375.865 357.773C374.955 358.656 374.5 359.715 374.5 360.952V414H365.065V346.961Z" fill="white"/>
<path d="M114.099 496.897L145.232 440H156.221L119.486 506H108.616L72 440H82.9896L114.099 496.897ZM176.246 440H216.056C219.95 440 223.247 441.343 225.949 444.03C228.667 446.733 230.026 449.981 230.026 453.774V477.67H171.764V492.226C171.764 493.443 172.209 494.486 173.099 495.356C173.973 496.225 175.022 496.659 176.246 496.659H230.026V506H176.246C172.432 506 169.166 504.657 166.448 501.97C163.746 499.267 162.396 496.019 162.396 492.226V453.774C162.396 449.981 163.746 446.733 166.448 444.03C169.166 441.343 172.432 440 176.246 440ZM171.764 453.774V468.33H220.514V453.774C220.514 452.557 220.077 451.514 219.203 450.644C218.329 449.775 217.28 449.341 216.056 449.341H176.246C175.022 449.341 173.973 449.775 173.099 450.644C172.209 451.514 171.764 452.557 171.764 453.774ZM254.951 440H292.258V449.341H254.951C253.743 449.341 252.694 449.775 251.804 450.644C250.93 451.514 250.493 452.557 250.493 453.774V506H241.125V453.774C241.125 449.981 242.476 446.733 245.177 444.03C247.879 441.343 251.137 440 254.951 440ZM366.863 453.774V454.675H357.376V453.774C357.376 452.557 356.939 451.514 356.064 450.644C355.175 449.775 354.126 449.341 352.918 449.341H313.084C311.86 449.341 310.811 449.775 309.937 450.644C309.063 451.514 308.626 452.557 308.626 453.774V463.897C308.626 465.114 309.063 466.157 309.937 467.026C310.811 467.895 311.86 468.33 313.084 468.33H352.918C356.796 468.33 360.093 469.681 362.811 472.384C365.512 475.07 366.863 478.31 366.863 482.103V492.226C366.863 496.019 365.512 499.267 362.811 501.97C360.093 504.657 356.796 506 352.918 506H313.084C309.269 506 306.012 504.657 303.31 501.97C300.592 499.267 299.233 496.019 299.233 492.226V491.325H308.626V492.226C308.626 493.443 309.063 494.486 309.937 495.356C310.811 496.225 311.86 496.659 313.084 496.659H352.918C354.126 496.659 355.175 496.225 356.064 495.356C356.939 494.486 357.376 493.443 357.376 492.226V482.103C357.376 480.886 356.939 479.843 356.064 478.974C355.175 478.105 354.126 477.67 352.918 477.67H313.084C309.269 477.67 306.012 476.319 303.31 473.616C300.592 470.93 299.233 467.69 299.233 463.897V453.774C299.233 449.981 300.592 446.733 303.31 444.03C306.012 441.343 309.269 440 313.084 440H352.918C356.796 440 360.093 441.343 362.811 444.03C365.512 446.733 366.863 449.981 366.863 453.774ZM390.22 440H430.031C433.924 440 437.222 441.343 439.924 444.03C442.641 446.733 444 449.981 444 453.774V477.67H385.739V492.226C385.739 493.443 386.184 494.486 387.074 495.356C387.948 496.225 388.997 496.659 390.22 496.659H444V506H390.22C386.406 506 383.14 504.657 380.423 501.97C377.721 499.267 376.37 496.019 376.37 492.226V453.774C376.37 449.981 377.721 446.733 380.423 444.03C383.14 441.343 386.406 440 390.22 440ZM385.739 453.774V468.33H434.488V453.774C434.488 452.557 434.051 451.514 433.177 450.644C432.303 449.775 431.254 449.341 430.031 449.341H390.22C388.997 449.341 387.948 449.775 387.074 450.644C386.184 451.514 385.739 452.557 385.739 453.774Z" fill="white"/>
</g>
<defs>
<clipPath id="clip0_101_2">
<rect width="512" height="512" fill="white"/>
</clipPath>
<clipPath id="clip1_101_2">
<rect width="305.938" height="305.938" fill="white" transform="translate(86.9743 4.31049)"/>
</clipPath>
</defs>
</svg>
